<svg xmlns="http://www.w3.org/2000/svg" width="24" height="20" viewBox="0 0 24 20" fill="none" style="width: 100%; height: 100%; fill: rgb(8, 104, 217);"><path d="M20.8247 15.719L21.8856 18.2931C22.0698 18.7399 21.9854 19.2762 21.6309 19.6407C21.3978 19.8805 21.0923 20 20.7868 20C20.4814 20 20.1759 19.8805 19.9428 19.6407L18.9343 18.6037L15.1277 14.6881C14.9513 14.5067 15.0761 14.1979 15.3256 14.1979H17.4888C17.5017 14.1979 17.5146 14.1961 17.5283 14.1961C19.8068 14.1961 21.655 12.268 21.612 9.91512C21.5699 7.61535 19.6967 5.79605 17.4604 5.79605H12.8441C12.7701 5.79605 12.6987 5.76596 12.6462 5.71199L10.8169 3.83075C10.6405 3.64935 10.7653 3.34053 11.0148 3.34053H17.4389C21.0304 3.34053 24.0316 6.36237 23.9998 10.0558C23.9791 12.4636 22.7091 14.5687 20.8256 15.7208L20.8247 15.719ZM6.54048 14.197C4.30419 14.197 2.431 12.3777 2.38884 10.0779C2.34668 7.77816 4.19405 5.79693 6.47251 5.79693C6.48628 5.79693 6.5009 5.79516 6.51467 5.79516H8.6761C8.92477 5.79516 9.04954 5.48546 8.87401 5.30495L4.87208 1.18941H4.87294L4.08478 0.3771C3.63477 -0.0856877 2.90253 -0.13524 2.42584 0.299231C2.02574 0.662913 1.92334 1.23012 2.11694 1.6991L3.17787 4.2723C1.29264 5.42352 0.0217621 7.52863 0.000250981 9.93636C-0.0315854 13.6298 2.96964 16.6525 6.56113 16.6525H12.9861C13.2347 16.6525 13.3595 16.3428 13.184 16.1623L11.3547 14.2811C11.3022 14.2271 11.2308 14.197 11.1568 14.197H6.53962H6.54048ZM7.70811 7.81798C6.5663 7.81798 5.64046 8.7701 5.64046 9.94432C5.64046 11.1185 6.5663 12.0707 7.70811 12.0707C8.84991 12.0707 9.77575 11.1185 9.77575 9.94432C9.77575 8.7701 8.84991 7.81798 7.70811 7.81798ZM16.1577 7.81709C15.0159 7.81709 14.09 8.76922 14.09 9.94344C14.09 11.1177 15.0159 12.0698 16.1577 12.0698C17.2995 12.0698 18.2253 11.1177 18.2253 9.94344C18.2253 8.76922 17.2995 7.81709 16.1577 7.81709Z" fill="url(#paint0_linear_16_544)"></path><defs><linearGradient id="paint0_linear_16_544" x1="0.000250981" y1="10.0001" x2="23.9998" y2="10.0001" gradientUnits="userSpaceOnUse"><stop stop-color="#0497DC"></stop><stop offset="0.51" stop-color="#465CE0"></stop><stop offset="1" stop-color="#984AD7"></stop></linearGradient></defs></svg>